<svg
    width="375"
    height="375"
    viewBox="0 0 375 375"
    fill="none"
    xmlns="http://www.w3.org/2000/svg"
>
    <rect width="375" height="375" />
    <path
        d="M37.5 301.293V265.086H109.914V337.5H37.5V301.293ZM99.569 301.293V275.431H47.8448V327.155H99.569V301.293ZM58.1897 301.293V285.776H89.2241V316.81H58.1897V301.293ZM130.603 332.328V327.155H120.259V306.466H130.603V275.431H140.948V265.086H120.259V254.741H78.8793V244.397H89.2241V234.052H68.5345V254.741H58.1897V244.397H37.5V234.052H58.1897V213.362H47.8448V223.707H37.5V203.017H58.1897V213.362H68.5345V223.707H78.8793V213.362H89.2241V223.707H109.914V213.362H99.569V203.017H68.5345V192.672H99.569V182.328H68.5345V171.983H58.1897V182.328H37.5V151.293H47.8448V161.638H109.914V151.293H99.569V140.948H78.8793V151.293H68.5345V140.948H47.8448V120.259H68.5345V140.948H78.8793V130.603H99.569V120.259H109.914V130.603H99.569V140.948H109.914V151.293H120.259V130.603H130.603V120.259H120.259V89.2241H140.948V99.569H151.293V109.914H140.948V120.259H151.293V182.328H130.603V171.983H120.259V182.328H109.914V192.672H99.569V203.017H109.914V213.362H120.259V223.707H140.948V213.362H130.603V203.017H120.259V192.672H140.948V213.362H151.293V192.672H161.638V213.362H171.983V182.328H182.328V171.983H192.672V182.328H182.328V192.672H192.672V203.017H223.707V192.672H213.362V182.328H203.017V161.638H192.672V151.293H203.017V140.948H213.362V130.603H203.017V120.259H192.672V140.948H182.328V130.603H171.983V140.948H161.638V130.603H171.983V120.259H161.638V89.2241H151.293V78.8793H161.638V89.2241H171.983V47.8448H182.328V68.5345H203.017V58.1897H192.672V37.5H213.362V47.8448H203.017V58.1897H223.707V47.8448H234.052V37.5H254.741V68.5345H234.052V58.1897H223.707V78.8793H234.052V109.914H244.397V99.569H254.741V151.293H275.431V140.948H265.086V120.259H285.776V151.293H306.466V140.948H296.121V120.259H306.466V140.948H316.81V130.603H337.5V151.293H327.155V140.948H316.81V151.293H306.466V182.328H316.81V192.672H306.466V203.017H285.776V213.362H275.431V223.707H254.741V213.362H244.397V203.017H234.052V223.707H244.397V234.052H275.431V244.397H296.121V234.052H285.776V223.707H296.121V213.362H306.466V223.707H316.81V234.052H327.155V213.362H316.81V203.017H337.5V234.052H327.155V254.741H337.5V275.431H327.155V306.466H337.5V316.81H306.466V337.5H275.431V327.155H296.121V316.81H275.431V296.121H265.086V316.81H254.741V327.155H265.086V337.5H244.397V306.466H234.052V327.155H223.707V316.81H213.362V275.431H223.707V306.466H234.052V275.431H244.397V254.741H234.052V244.397H223.707V234.052H234.052V223.707H223.707V213.362H213.362V254.741H223.707V265.086H203.017V285.776H192.672V306.466H203.017V316.81H192.672V327.155H213.362V337.5H192.672V327.155H182.328V316.81H171.983V337.5H130.603V332.328ZM161.638 316.81V306.466H171.983V275.431H151.293V285.776H161.638V296.121H140.948V306.466H130.603V316.81H140.948V327.155H161.638V316.81ZM306.466 306.466V296.121H316.81V275.431H327.155V265.086H316.81V234.052H306.466V265.086H316.81V275.431H306.466V285.776H296.121V316.81H306.466V306.466ZM254.741 301.293V296.121H244.397V306.466H254.741V301.293ZM192.672 280.603V275.431H182.328V285.776H192.672V280.603ZM285.776 270.259V254.741H254.741V285.776H285.776V270.259ZM265.086 270.259V265.086H275.431V275.431H265.086V270.259ZM182.328 259.914V254.741H203.017V244.397H182.328V234.052H171.983V244.397H182.328V254.741H161.638V244.397H151.293V254.741H140.948V244.397H130.603V234.052H120.259V223.707H109.914V234.052H99.569V244.397H109.914V234.052H120.259V244.397H130.603V254.741H140.948V265.086H182.328V259.914ZM151.293 228.879V223.707H140.948V234.052H151.293V228.879ZM203.017 223.707V213.362H182.328V223.707H192.672V234.052H203.017V223.707ZM265.086 208.19V203.017H254.741V213.362H265.086V208.19ZM285.776 197.845V192.672H296.121V161.638H285.776V171.983H275.431V182.328H265.086V171.983H244.397V161.638H234.052V151.293H244.397V120.259H234.052V109.914H223.707V99.569H213.362V109.914H203.017V78.8793H213.362V89.2241H223.707V78.8793H213.362V68.5345H203.017V78.8793H192.672V109.914H203.017V120.259H213.362V109.914H223.707V140.948H213.362V151.293H203.017V161.638H213.362V182.328H223.707V171.983H244.397V182.328H254.741V192.672H275.431V203.017H285.776V197.845ZM275.431 187.5V182.328H285.776V192.672H275.431V187.5ZM109.914 177.155V171.983H120.259V161.638H109.914V171.983H99.569V182.328H109.914V177.155ZM140.948 156.466V151.293H130.603V161.638H140.948V156.466ZM140.948 104.741V99.569H130.603V109.914H140.948V104.741ZM182.328 99.569V89.2241H171.983V109.914H182.328V99.569ZM244.397 53.0172V47.8448H234.052V58.1897H244.397V53.0172ZM327.155 332.328V327.155H337.5V337.5H327.155V332.328ZM327.155 182.328V171.983H316.81V161.638H327.155V171.983H337.5V192.672H327.155V182.328ZM37.5 73.7069V37.5H109.914V109.914H37.5V73.7069ZM99.569 73.7069V47.8448H47.8448V99.569H99.569V73.7069ZM58.1897 73.7069V58.1897H89.2241V89.2241H58.1897V73.7069ZM265.086 73.7069V37.5H337.5V109.914H265.086V73.7069ZM327.155 73.7069V47.8448H275.431V99.569H327.155V73.7069ZM285.776 73.7069V58.1897H316.81V89.2241H285.776V73.7069ZM120.259 73.7069V68.5345H130.603V78.8793H120.259V73.7069ZM140.948 63.3621V58.1897H130.603V37.5H140.948V47.8448H151.293V37.5H161.638V47.8448H151.293V68.5345H140.948V63.3621Z"
        fill="currentColor"
    />
</svg>
